<mxfile host="app.diagrams.net" modified="2024-02-21T11:33:58.518Z" agent="Mozilla/5.0 (Windows NT 10.0; Win64; x64) AppleWebKit/537.36 (KHTML, like Gecko) Chrome/121.0.0.0 Safari/537.36 Edg/121.0.0.0" etag="g-v44wVPzhNMaBNA0qmY" version="23.1.5" type="device">
  <diagram id="C5RBs43oDa-KdzZeNtuy" name="Page-1">
    <mxGraphModel dx="1012" dy="593" grid="1" gridSize="10" guides="1" tooltips="1" connect="1" arrows="1" fold="1" page="1" pageScale="1" pageWidth="827" pageHeight="1169" math="0" shadow="0">
      <root>
        <mxCell id="WIyWlLk6GJQsqaUBKTNV-0" />
        <mxCell id="WIyWlLk6GJQsqaUBKTNV-1" parent="WIyWlLk6GJQsqaUBKTNV-0" />
        <mxCell id="qJ55KxAOVfGeLWlhkWv6-21" style="edgeStyle=orthogonalEdgeStyle;rounded=0;orthogonalLoop=1;jettySize=auto;html=1;entryX=0.5;entryY=0;entryDx=0;entryDy=0;" edge="1" parent="WIyWlLk6GJQsqaUBKTNV-1" source="WIyWlLk6GJQsqaUBKTNV-3" target="WIyWlLk6GJQsqaUBKTNV-6">
          <mxGeometry relative="1" as="geometry" />
        </mxCell>
        <mxCell id="WIyWlLk6GJQsqaUBKTNV-3" value="/start" style="rounded=1;whiteSpace=wrap;html=1;fontSize=12;glass=0;strokeWidth=1;shadow=0;fillColor=#d5e8d4;strokeColor=#82b366;" parent="WIyWlLk6GJQsqaUBKTNV-1" vertex="1">
          <mxGeometry x="160" y="80" width="120" height="40" as="geometry" />
        </mxCell>
        <mxCell id="qJ55KxAOVfGeLWlhkWv6-23" style="edgeStyle=orthogonalEdgeStyle;rounded=0;orthogonalLoop=1;jettySize=auto;html=1;entryX=0.5;entryY=0;entryDx=0;entryDy=0;" edge="1" parent="WIyWlLk6GJQsqaUBKTNV-1" source="WIyWlLk6GJQsqaUBKTNV-6" target="WIyWlLk6GJQsqaUBKTNV-10">
          <mxGeometry relative="1" as="geometry" />
        </mxCell>
        <mxCell id="qJ55KxAOVfGeLWlhkWv6-26" value="Descrizione" style="edgeLabel;html=1;align=center;verticalAlign=middle;resizable=0;points=[];" vertex="1" connectable="0" parent="qJ55KxAOVfGeLWlhkWv6-23">
          <mxGeometry x="-0.31" y="-2" relative="1" as="geometry">
            <mxPoint as="offset" />
          </mxGeometry>
        </mxCell>
        <mxCell id="qJ55KxAOVfGeLWlhkWv6-24" style="edgeStyle=orthogonalEdgeStyle;rounded=0;orthogonalLoop=1;jettySize=auto;html=1;entryX=0;entryY=0.5;entryDx=0;entryDy=0;" edge="1" parent="WIyWlLk6GJQsqaUBKTNV-1" source="WIyWlLk6GJQsqaUBKTNV-6" target="qJ55KxAOVfGeLWlhkWv6-35">
          <mxGeometry relative="1" as="geometry">
            <mxPoint x="320" y="220" as="targetPoint" />
            <Array as="points">
              <mxPoint x="450" y="220" />
            </Array>
          </mxGeometry>
        </mxCell>
        <mxCell id="qJ55KxAOVfGeLWlhkWv6-27" value="Immagine" style="edgeLabel;html=1;align=center;verticalAlign=middle;resizable=0;points=[];" vertex="1" connectable="0" parent="qJ55KxAOVfGeLWlhkWv6-24">
          <mxGeometry x="0.104" y="2" relative="1" as="geometry">
            <mxPoint x="-20" y="2" as="offset" />
          </mxGeometry>
        </mxCell>
        <mxCell id="WIyWlLk6GJQsqaUBKTNV-6" value="Cosa vuoi generare?" style="rhombus;whiteSpace=wrap;html=1;shadow=0;fontFamily=Helvetica;fontSize=12;align=center;strokeWidth=1;spacing=6;spacingTop=-4;fillColor=#dae8fc;strokeColor=#6c8ebf;" parent="WIyWlLk6GJQsqaUBKTNV-1" vertex="1">
          <mxGeometry x="170" y="180" width="100" height="80" as="geometry" />
        </mxCell>
        <mxCell id="qJ55KxAOVfGeLWlhkWv6-28" style="edgeStyle=orthogonalEdgeStyle;rounded=0;orthogonalLoop=1;jettySize=auto;html=1;exitX=0;exitY=1;exitDx=0;exitDy=0;entryX=0;entryY=0;entryDx=0;entryDy=0;" edge="1" parent="WIyWlLk6GJQsqaUBKTNV-1" source="WIyWlLk6GJQsqaUBKTNV-10" target="qJ55KxAOVfGeLWlhkWv6-0">
          <mxGeometry relative="1" as="geometry" />
        </mxCell>
        <mxCell id="qJ55KxAOVfGeLWlhkWv6-30" value="Post" style="edgeLabel;html=1;align=center;verticalAlign=middle;resizable=0;points=[];" vertex="1" connectable="0" parent="qJ55KxAOVfGeLWlhkWv6-28">
          <mxGeometry x="-0.104" y="3" relative="1" as="geometry">
            <mxPoint as="offset" />
          </mxGeometry>
        </mxCell>
        <mxCell id="qJ55KxAOVfGeLWlhkWv6-29" style="edgeStyle=orthogonalEdgeStyle;rounded=0;orthogonalLoop=1;jettySize=auto;html=1;exitX=1;exitY=1;exitDx=0;exitDy=0;entryX=1;entryY=0;entryDx=0;entryDy=0;" edge="1" parent="WIyWlLk6GJQsqaUBKTNV-1" source="WIyWlLk6GJQsqaUBKTNV-10" target="qJ55KxAOVfGeLWlhkWv6-0">
          <mxGeometry relative="1" as="geometry" />
        </mxCell>
        <mxCell id="qJ55KxAOVfGeLWlhkWv6-31" value="Storia" style="edgeLabel;html=1;align=center;verticalAlign=middle;resizable=0;points=[];" vertex="1" connectable="0" parent="qJ55KxAOVfGeLWlhkWv6-29">
          <mxGeometry x="-0.104" y="-2" relative="1" as="geometry">
            <mxPoint as="offset" />
          </mxGeometry>
        </mxCell>
        <mxCell id="WIyWlLk6GJQsqaUBKTNV-10" value="Per quale contenuto?" style="rhombus;whiteSpace=wrap;html=1;shadow=0;fontFamily=Helvetica;fontSize=12;align=center;strokeWidth=1;spacing=6;spacingTop=-4;fillColor=#dae8fc;strokeColor=#6c8ebf;" parent="WIyWlLk6GJQsqaUBKTNV-1" vertex="1">
          <mxGeometry x="170" y="320" width="100" height="80" as="geometry" />
        </mxCell>
        <mxCell id="qJ55KxAOVfGeLWlhkWv6-2" style="edgeStyle=orthogonalEdgeStyle;rounded=0;orthogonalLoop=1;jettySize=auto;html=1;entryX=0.5;entryY=0;entryDx=0;entryDy=0;" edge="1" parent="WIyWlLk6GJQsqaUBKTNV-1" source="qJ55KxAOVfGeLWlhkWv6-0" target="qJ55KxAOVfGeLWlhkWv6-1">
          <mxGeometry relative="1" as="geometry" />
        </mxCell>
        <mxCell id="qJ55KxAOVfGeLWlhkWv6-3" value="Testo libero" style="edgeLabel;html=1;align=center;verticalAlign=middle;resizable=0;points=[];" vertex="1" connectable="0" parent="qJ55KxAOVfGeLWlhkWv6-2">
          <mxGeometry x="-0.0971" y="-2" relative="1" as="geometry">
            <mxPoint as="offset" />
          </mxGeometry>
        </mxCell>
        <mxCell id="qJ55KxAOVfGeLWlhkWv6-0" value="Argomento" style="rhombus;whiteSpace=wrap;html=1;shadow=0;fontFamily=Helvetica;fontSize=12;align=center;strokeWidth=1;spacing=6;spacingTop=-4;fillColor=#dae8fc;strokeColor=#6c8ebf;" vertex="1" parent="WIyWlLk6GJQsqaUBKTNV-1">
          <mxGeometry x="170" y="460" width="100" height="80" as="geometry" />
        </mxCell>
        <mxCell id="qJ55KxAOVfGeLWlhkWv6-8" value="" style="edgeStyle=orthogonalEdgeStyle;rounded=0;orthogonalLoop=1;jettySize=auto;html=1;" edge="1" parent="WIyWlLk6GJQsqaUBKTNV-1" source="qJ55KxAOVfGeLWlhkWv6-1" target="qJ55KxAOVfGeLWlhkWv6-7">
          <mxGeometry relative="1" as="geometry" />
        </mxCell>
        <mxCell id="qJ55KxAOVfGeLWlhkWv6-18" value="Vai" style="edgeLabel;html=1;align=center;verticalAlign=middle;resizable=0;points=[];" vertex="1" connectable="0" parent="qJ55KxAOVfGeLWlhkWv6-8">
          <mxGeometry x="-0.0756" y="2" relative="1" as="geometry">
            <mxPoint as="offset" />
          </mxGeometry>
        </mxCell>
        <mxCell id="qJ55KxAOVfGeLWlhkWv6-19" style="edgeStyle=orthogonalEdgeStyle;rounded=0;orthogonalLoop=1;jettySize=auto;html=1;entryX=0;entryY=0.5;entryDx=0;entryDy=0;" edge="1" parent="WIyWlLk6GJQsqaUBKTNV-1" source="qJ55KxAOVfGeLWlhkWv6-1" target="qJ55KxAOVfGeLWlhkWv6-0">
          <mxGeometry relative="1" as="geometry">
            <mxPoint x="170" y="480" as="targetPoint" />
            <Array as="points">
              <mxPoint x="90" y="640" />
              <mxPoint x="90" y="500" />
            </Array>
          </mxGeometry>
        </mxCell>
        <mxCell id="qJ55KxAOVfGeLWlhkWv6-20" value="No aspetta" style="edgeLabel;html=1;align=center;verticalAlign=middle;resizable=0;points=[];" vertex="1" connectable="0" parent="qJ55KxAOVfGeLWlhkWv6-19">
          <mxGeometry x="-0.6919" relative="1" as="geometry">
            <mxPoint x="8" as="offset" />
          </mxGeometry>
        </mxCell>
        <mxCell id="qJ55KxAOVfGeLWlhkWv6-1" value="Quindi andiamo?" style="rhombus;whiteSpace=wrap;html=1;shadow=0;fontFamily=Helvetica;fontSize=12;align=center;strokeWidth=1;spacing=6;spacingTop=-4;fillColor=#dae8fc;strokeColor=#6c8ebf;" vertex="1" parent="WIyWlLk6GJQsqaUBKTNV-1">
          <mxGeometry x="170" y="600" width="100" height="80" as="geometry" />
        </mxCell>
        <mxCell id="qJ55KxAOVfGeLWlhkWv6-10" value="" style="edgeStyle=orthogonalEdgeStyle;rounded=0;orthogonalLoop=1;jettySize=auto;html=1;entryX=0.5;entryY=0;entryDx=0;entryDy=0;entryPerimeter=0;" edge="1" parent="WIyWlLk6GJQsqaUBKTNV-1" source="qJ55KxAOVfGeLWlhkWv6-7" target="qJ55KxAOVfGeLWlhkWv6-11">
          <mxGeometry relative="1" as="geometry">
            <mxPoint x="220" y="875" as="targetPoint" />
          </mxGeometry>
        </mxCell>
        <mxCell id="qJ55KxAOVfGeLWlhkWv6-7" value="Genera descrizione" style="rounded=1;whiteSpace=wrap;html=1;shadow=0;strokeWidth=1;spacing=6;spacingTop=-4;fillColor=#e1d5e7;strokeColor=#9673a6;" vertex="1" parent="WIyWlLk6GJQsqaUBKTNV-1">
          <mxGeometry x="160" y="740" width="120" height="40" as="geometry" />
        </mxCell>
        <mxCell id="qJ55KxAOVfGeLWlhkWv6-15" value="" style="edgeStyle=orthogonalEdgeStyle;rounded=0;orthogonalLoop=1;jettySize=auto;html=1;entryX=0.5;entryY=0;entryDx=0;entryDy=0;" edge="1" parent="WIyWlLk6GJQsqaUBKTNV-1" source="qJ55KxAOVfGeLWlhkWv6-11" target="qJ55KxAOVfGeLWlhkWv6-16">
          <mxGeometry relative="1" as="geometry">
            <mxPoint x="220" y="1050" as="targetPoint" />
          </mxGeometry>
        </mxCell>
        <mxCell id="qJ55KxAOVfGeLWlhkWv6-17" value="SÃ¬" style="edgeLabel;html=1;align=center;verticalAlign=middle;resizable=0;points=[];" vertex="1" connectable="0" parent="qJ55KxAOVfGeLWlhkWv6-15">
          <mxGeometry x="-0.2973" relative="1" as="geometry">
            <mxPoint as="offset" />
          </mxGeometry>
        </mxCell>
        <mxCell id="qJ55KxAOVfGeLWlhkWv6-32" style="edgeStyle=orthogonalEdgeStyle;rounded=0;orthogonalLoop=1;jettySize=auto;html=1;entryX=1;entryY=0.5;entryDx=0;entryDy=0;" edge="1" parent="WIyWlLk6GJQsqaUBKTNV-1" source="qJ55KxAOVfGeLWlhkWv6-11" target="qJ55KxAOVfGeLWlhkWv6-0">
          <mxGeometry relative="1" as="geometry">
            <Array as="points">
              <mxPoint x="330" y="860" />
              <mxPoint x="330" y="500" />
            </Array>
          </mxGeometry>
        </mxCell>
        <mxCell id="qJ55KxAOVfGeLWlhkWv6-33" value="No" style="edgeLabel;html=1;align=center;verticalAlign=middle;resizable=0;points=[];" vertex="1" connectable="0" parent="qJ55KxAOVfGeLWlhkWv6-32">
          <mxGeometry x="-0.8596" y="-1" relative="1" as="geometry">
            <mxPoint x="-4" y="-1" as="offset" />
          </mxGeometry>
        </mxCell>
        <mxCell id="qJ55KxAOVfGeLWlhkWv6-11" value="Ti piace?" style="rhombus;whiteSpace=wrap;html=1;shadow=0;fontFamily=Helvetica;fontSize=12;align=center;strokeWidth=1;spacing=6;spacingTop=-4;fillColor=#dae8fc;strokeColor=#6c8ebf;" vertex="1" parent="WIyWlLk6GJQsqaUBKTNV-1">
          <mxGeometry x="170" y="820" width="100" height="80" as="geometry" />
        </mxCell>
        <mxCell id="qJ55KxAOVfGeLWlhkWv6-16" value="/done" style="rounded=1;whiteSpace=wrap;html=1;shadow=0;strokeWidth=1;spacing=6;spacingTop=-4;fillColor=#d5e8d4;strokeColor=#82b366;" vertex="1" parent="WIyWlLk6GJQsqaUBKTNV-1">
          <mxGeometry x="160" y="960" width="120" height="40" as="geometry" />
        </mxCell>
        <mxCell id="qJ55KxAOVfGeLWlhkWv6-39" style="edgeStyle=orthogonalEdgeStyle;rounded=0;orthogonalLoop=1;jettySize=auto;html=1;entryX=0.5;entryY=0;entryDx=0;entryDy=0;" edge="1" parent="WIyWlLk6GJQsqaUBKTNV-1" source="qJ55KxAOVfGeLWlhkWv6-35" target="qJ55KxAOVfGeLWlhkWv6-37">
          <mxGeometry relative="1" as="geometry" />
        </mxCell>
        <mxCell id="qJ55KxAOVfGeLWlhkWv6-40" value="Testo libero" style="edgeLabel;html=1;align=center;verticalAlign=middle;resizable=0;points=[];" vertex="1" connectable="0" parent="qJ55KxAOVfGeLWlhkWv6-39">
          <mxGeometry x="-0.2114" y="-4" relative="1" as="geometry">
            <mxPoint as="offset" />
          </mxGeometry>
        </mxCell>
        <mxCell id="qJ55KxAOVfGeLWlhkWv6-35" value="Argomento" style="rhombus;whiteSpace=wrap;html=1;shadow=0;fontFamily=Helvetica;fontSize=12;align=center;strokeWidth=1;spacing=6;spacingTop=-4;fillColor=#dae8fc;strokeColor=#6c8ebf;" vertex="1" parent="WIyWlLk6GJQsqaUBKTNV-1">
          <mxGeometry x="540" y="180" width="100" height="80" as="geometry" />
        </mxCell>
        <mxCell id="qJ55KxAOVfGeLWlhkWv6-41" style="edgeStyle=orthogonalEdgeStyle;rounded=0;orthogonalLoop=1;jettySize=auto;html=1;entryX=0.5;entryY=0;entryDx=0;entryDy=0;" edge="1" parent="WIyWlLk6GJQsqaUBKTNV-1" source="qJ55KxAOVfGeLWlhkWv6-37" target="qJ55KxAOVfGeLWlhkWv6-38">
          <mxGeometry relative="1" as="geometry" />
        </mxCell>
        <mxCell id="qJ55KxAOVfGeLWlhkWv6-42" value="Vai" style="edgeLabel;html=1;align=center;verticalAlign=middle;resizable=0;points=[];" vertex="1" connectable="0" parent="qJ55KxAOVfGeLWlhkWv6-41">
          <mxGeometry x="-0.12" y="1" relative="1" as="geometry">
            <mxPoint as="offset" />
          </mxGeometry>
        </mxCell>
        <mxCell id="qJ55KxAOVfGeLWlhkWv6-43" style="edgeStyle=orthogonalEdgeStyle;rounded=0;orthogonalLoop=1;jettySize=auto;html=1;entryX=1;entryY=0.5;entryDx=0;entryDy=0;exitX=1;exitY=0.5;exitDx=0;exitDy=0;" edge="1" parent="WIyWlLk6GJQsqaUBKTNV-1" source="qJ55KxAOVfGeLWlhkWv6-37" target="qJ55KxAOVfGeLWlhkWv6-35">
          <mxGeometry relative="1" as="geometry">
            <Array as="points">
              <mxPoint x="708" y="360" />
              <mxPoint x="708" y="220" />
            </Array>
          </mxGeometry>
        </mxCell>
        <mxCell id="qJ55KxAOVfGeLWlhkWv6-44" value="No aspetta" style="edgeLabel;html=1;align=center;verticalAlign=middle;resizable=0;points=[];" vertex="1" connectable="0" parent="qJ55KxAOVfGeLWlhkWv6-43">
          <mxGeometry x="-0.7874" y="-2" relative="1" as="geometry">
            <mxPoint as="offset" />
          </mxGeometry>
        </mxCell>
        <mxCell id="qJ55KxAOVfGeLWlhkWv6-37" value="Quindi andiamo?" style="rhombus;whiteSpace=wrap;html=1;shadow=0;fontFamily=Helvetica;fontSize=12;align=center;strokeWidth=1;spacing=6;spacingTop=-4;fillColor=#dae8fc;strokeColor=#6c8ebf;" vertex="1" parent="WIyWlLk6GJQsqaUBKTNV-1">
          <mxGeometry x="540" y="320" width="100" height="80" as="geometry" />
        </mxCell>
        <mxCell id="qJ55KxAOVfGeLWlhkWv6-46" style="edgeStyle=orthogonalEdgeStyle;rounded=0;orthogonalLoop=1;jettySize=auto;html=1;entryX=0.5;entryY=0;entryDx=0;entryDy=0;" edge="1" parent="WIyWlLk6GJQsqaUBKTNV-1" source="qJ55KxAOVfGeLWlhkWv6-38" target="qJ55KxAOVfGeLWlhkWv6-45">
          <mxGeometry relative="1" as="geometry" />
        </mxCell>
        <mxCell id="qJ55KxAOVfGeLWlhkWv6-38" value="Genera prompt" style="rounded=1;whiteSpace=wrap;html=1;shadow=0;strokeWidth=1;spacing=6;spacingTop=-4;fillColor=#e1d5e7;strokeColor=#9673a6;" vertex="1" parent="WIyWlLk6GJQsqaUBKTNV-1">
          <mxGeometry x="530" y="460" width="120" height="40" as="geometry" />
        </mxCell>
        <mxCell id="qJ55KxAOVfGeLWlhkWv6-51" style="edgeStyle=orthogonalEdgeStyle;rounded=0;orthogonalLoop=1;jettySize=auto;html=1;" edge="1" parent="WIyWlLk6GJQsqaUBKTNV-1" source="qJ55KxAOVfGeLWlhkWv6-45" target="qJ55KxAOVfGeLWlhkWv6-49">
          <mxGeometry relative="1" as="geometry" />
        </mxCell>
        <mxCell id="qJ55KxAOVfGeLWlhkWv6-45" value="Genera immagine" style="rounded=1;whiteSpace=wrap;html=1;shadow=0;strokeWidth=1;spacing=6;spacingTop=-4;fillColor=#e1d5e7;strokeColor=#9673a6;" vertex="1" parent="WIyWlLk6GJQsqaUBKTNV-1">
          <mxGeometry x="530" y="540" width="120" height="40" as="geometry" />
        </mxCell>
        <mxCell id="qJ55KxAOVfGeLWlhkWv6-52" style="edgeStyle=orthogonalEdgeStyle;rounded=0;orthogonalLoop=1;jettySize=auto;html=1;" edge="1" parent="WIyWlLk6GJQsqaUBKTNV-1" source="qJ55KxAOVfGeLWlhkWv6-49" target="qJ55KxAOVfGeLWlhkWv6-50">
          <mxGeometry relative="1" as="geometry" />
        </mxCell>
        <mxCell id="qJ55KxAOVfGeLWlhkWv6-53" value="SÃ¬" style="edgeLabel;html=1;align=center;verticalAlign=middle;resizable=0;points=[];" vertex="1" connectable="0" parent="qJ55KxAOVfGeLWlhkWv6-52">
          <mxGeometry x="-0.2" y="-2" relative="1" as="geometry">
            <mxPoint as="offset" />
          </mxGeometry>
        </mxCell>
        <mxCell id="qJ55KxAOVfGeLWlhkWv6-56" style="edgeStyle=orthogonalEdgeStyle;rounded=0;orthogonalLoop=1;jettySize=auto;html=1;exitX=0;exitY=0.5;exitDx=0;exitDy=0;" edge="1" parent="WIyWlLk6GJQsqaUBKTNV-1" source="qJ55KxAOVfGeLWlhkWv6-49">
          <mxGeometry relative="1" as="geometry">
            <mxPoint x="565" y="660" as="sourcePoint" />
            <mxPoint x="540" y="360" as="targetPoint" />
            <Array as="points">
              <mxPoint x="480" y="660" />
              <mxPoint x="480" y="360" />
            </Array>
          </mxGeometry>
        </mxCell>
        <mxCell id="qJ55KxAOVfGeLWlhkWv6-57" value="No" style="edgeLabel;html=1;align=center;verticalAlign=middle;resizable=0;points=[];" vertex="1" connectable="0" parent="qJ55KxAOVfGeLWlhkWv6-56">
          <mxGeometry x="-0.8686" y="1" relative="1" as="geometry">
            <mxPoint as="offset" />
          </mxGeometry>
        </mxCell>
        <mxCell id="qJ55KxAOVfGeLWlhkWv6-49" value="Ti piace?" style="rhombus;whiteSpace=wrap;html=1;shadow=0;fontFamily=Helvetica;fontSize=12;align=center;strokeWidth=1;spacing=6;spacingTop=-4;fillColor=#dae8fc;strokeColor=#6c8ebf;" vertex="1" parent="WIyWlLk6GJQsqaUBKTNV-1">
          <mxGeometry x="540" y="620" width="100" height="80" as="geometry" />
        </mxCell>
        <mxCell id="qJ55KxAOVfGeLWlhkWv6-50" value="/done" style="rounded=1;whiteSpace=wrap;html=1;shadow=0;strokeWidth=1;spacing=6;spacingTop=-4;fillColor=#d5e8d4;strokeColor=#82b366;" vertex="1" parent="WIyWlLk6GJQsqaUBKTNV-1">
          <mxGeometry x="530" y="760" width="120" height="40" as="geometry" />
        </mxCell>
      </root>
    </mxGraphModel>
  </diagram>
</mxfile>
